<svg id="_圖層_1" data-name="圖層 1" xmlns="http://www.w3.org/2000/svg" width="4000" height="50"><defs><style>.cls-11,.cls-12,.cls-14,.cls-3,.cls-4,.cls-5,.cls-7,.cls-8{stroke:#000}.cls-11,.cls-12,.cls-14,.cls-17,.cls-3,.cls-4,.cls-5,.cls-7,.cls-8{fill:none}.cls-12,.cls-14,.cls-17,.cls-3,.cls-4,.cls-5,.cls-7{stroke-linecap:round}.cls-8{stroke-miterlimit:10}.cls-3{stroke-width:5px}.cls-11,.cls-12,.cls-17,.cls-4,.cls-7,.cls-8{stroke-width:3px}.cls-5{stroke-width:4px}.cls-12,.cls-14{stroke-linejoin:round}.cls-11,.cls-17,.cls-7{stroke-miterlimit:133.33}.cls-14{stroke-width:3.5px}.cls-17{stroke:#0c0310}.cls-18{fill-rule:evenodd}</style></defs><g id="Group_400" data-name="Group 400"><path id="Line_30" data-name="Line 30" class="cls-5" d="M405.25 5.25L445 45"/><path id="Line_31" data-name="Line 31" class="cls-5" d="M445 5.25L405.25 45"/></g><g id="Group_400-2" data-name="Group 400"><path id="Line_30-2" data-name="Line 30" class="cls-3" d="M625.07 3.07v43.75"/><path id="Line_31-2" data-name="Line 31" class="cls-3" d="M646.95 24.95H603.2"/></g><g id="Group_400-3" data-name="Group 400"><path id="Line_30-3" data-name="Line 30" class="cls-4" d="M575 14.31v21.76"/><path id="Line_31-3" data-name="Line 31" class="cls-4" d="M585.88 25.19h-21.76"/></g><path d="M1641.46 10.06c-4.54-4.54-10.96-7.15-18.03-6.43-10.21 1.03-18.61 9.32-19.76 19.53-1.53 13.5 8.9 24.88 22.07 24.88 8.88 0 16.5-5.2 20.06-12.69.89-1.86-.45-4.01-2.5-4.01-1.03 0-2 .56-2.45 1.47-3.14 6.76-10.68 11.05-18.92 9.21-6.18-1.36-11.16-6.4-12.47-12.58-2.34-10.8 5.87-20.37 16.28-20.37 4.62 0 8.74 1.92 11.74 4.95l-4.2 4.2c-1.75 1.75-.53 4.76 1.95 4.76h9.99c1.53 0 2.78-1.25 2.78-2.78v-9.99c0-2.48-3.01-3.73-4.76-1.98l-1.78 1.81zm679.18 15.75c-.52-.47-.51-1.28 0-1.74l18.88-16.96a3.98 3.98 0 00.31-5.61 3.956 3.956 0 00-5.59-.31l-23.13 20.77a3.983 3.983 0 00-.01 5.91l23.34 21.11a3.947 3.947 0 005.59-.29 3.97 3.97 0 00-.29-5.61l-19.1-17.27zm40.45 17.27a3.989 3.989 0 00-.29 5.61 3.947 3.947 0 005.59.29l23.34-21.11c1.75-1.58 1.74-4.33-.01-5.91l-23.13-20.77a3.947 3.947 0 00-5.59.31 3.981 3.981 0 00.31 5.61l18.88 16.96c.52.47.52 1.28 0 1.74l-19.1 17.27z"/><path d="M254.5 16.24l21.15 18.52L296.5 16.5m77.26-12l-18.52 21.15L373.5 46.5" stroke-miterlimit="10" stroke-linecap="round" fill="none" stroke="#000" stroke-width="6"/><circle cx="309.5" cy="24.75" r="4.5"/><circle cx="325.5" cy="24.75" r="4.5"/><circle cx="341.5" cy="24.75" r="4.5"/><path d="M975 4.03c-11.59 0-20.99 9.41-20.98 21 0 3.24.75 6.43 2.19 9.33.2.37.25.8.16 1.21l-1.17 4.35a4.003 4.003 0 004.9 4.9l4.35-1.17c.41-.1.84-.04 1.21.16 10.38 5.16 22.99.93 28.15-9.45 1.44-2.9 2.19-6.1 2.2-9.34 0-11.59-9.41-20.99-21-20.98zm0 39.04c-2.78 0-5.53-.65-8.02-1.88a4.632 4.632 0 00-3.27-.36L959.36 42a1.074 1.074 0 01-1.31-1.32l1.17-4.35c.28-1.1.15-2.26-.37-3.27-4.44-8.94-.8-19.78 8.13-24.22 2.5-1.24 5.24-1.89 8.03-1.89 9.97 0 18.06 8.09 18.05 18.07 0 9.97-8.09 18.06-18.07 18.05z"/><path d="M982.7 24.7h-6.96V13.59c0-.81-.66-1.46-1.46-1.46s-1.46.66-1.46 1.46v14.04h9.89c.81 0 1.46-.66 1.46-1.46s-.66-1.46-1.46-1.46zM825.25 2c-12.43 0-22.5 10.09-22.49 22.52 0 3.47.81 6.89 2.35 10 .21.4.27.86.17 1.3l-1.26 4.66c-.61 2.29.75 4.64 3.04 5.25.73.19 1.49.19 2.22 0l4.66-1.26c.44-.1.9-.04 1.3.17 11.13 5.54 24.65 1 30.18-10.14 1.55-3.11 2.35-6.54 2.35-10.01 0-12.43-10.09-22.5-22.52-22.49zm0 41.86c-2.98 0-5.93-.69-8.6-2.02a5.018 5.018 0 00-3.51-.39l-4.66 1.26a1.154 1.154 0 01-1.41-1.42l1.26-4.66c.3-1.18.16-2.43-.39-3.51-4.76-9.58-.86-21.21 8.72-25.97 2.68-1.33 5.62-2.02 8.61-2.03 10.7 0 19.36 8.68 19.36 19.37 0 10.7-8.68 19.36-19.37 19.36z"/><path class="cls-12" d="M1008.25 17.76v-5.44c0-.67.16-1.33.45-1.93l1.7-3.4h10.76l2.15 4.31h21.53c1.19 0 2.15.96 2.15 2.15v23.68a4.31 4.31 0 01-4.31 4.31h-4.31"/><path class="cls-11" d="M1036.74 17.76h-32.14c-1.42 0-2.45 1.35-2.08 2.72l4.85 17.79a4.303 4.303 0 004.15 3.17h30.49c1.42 0 2.45-1.35 2.08-2.72l-5.28-19.38a2.16 2.16 0 00-2.08-1.59z"/><circle cx="474.83" cy="24.5" r="21.5" stroke-linejoin="round" stroke-width="4.5" stroke-linecap="round" fill="none" stroke="#000"/><path class="cls-18" d="M473.51 19.92c-1.9.89-3.52 2.42-5.15 4.65-.23.32-.24.51 0 .68.17.12.26.08.51-.18l.07-.07c.21-.23.38-.42.74-.84 1.2-1.39 1.78-1.96 2.69-2.48.79-.45 1.48.21 1.34 1.06-.04.24-.1.41-.26.79-.07.15-.09.22-.12.3-.29.78-.54 1.42-1.06 2.77l-.02.06q-.16.41-.31.82c-.68 1.77-1.1 2.86-1.52 4.01l-.03.07c-.08.2-.15.41-.23.61-.49 1.33-.77 2.19-.98 3.1q-.03.14-.07.29c-.12.52-.18.85-.22 1.2-.06.59-.01 1.08.17 1.49.21.46.66.79 1.18.87.86.13 1.69.12 2.41-.05.4-.09.8-.21 1.19-.36 1.13-.42 2.21-1.09 3.27-1.96.92-.77 1.79-1.7 2.7-2.86l.16-.2c.28-.35.41-.58.46-.82.05-.26-.17-.53-.34-.44-.09.04-.18.13-.32.31-.1.13-.15.2-.21.26a43.43 43.43 0 01-2.12 2.23c-.31.31-.69.58-1.11.78-.66.33-1.26-.08-1.19-.82.05-.49.16-.99.34-1.47.38-1.06.7-1.92 1.39-3.81.3-.82.43-1.17.59-1.62.48-1.31.87-2.37 1.23-3.39.45-1.26.71-2.2.83-3.17.09-.73-.11-1.43-.58-1.91-.51-.53-1.25-.78-2.16-.77-1.01.01-2.19.34-3.27.85zm6.9-8.69c-1.81-.71-3.99.51-4.35 2.43-.26 1.39.26 2.59 1.32 3.09 2.1 1 4.62-.6 4.62-2.93 0-1.3-.55-2.19-1.59-2.59zm42.55-9.67h4.53c3.16 0 5.67 0 7.69.17 2.07.17 3.84.53 5.45 1.37 2.5 1.3 4.53 3.33 5.83 5.83.84 1.61 1.2 3.38 1.37 5.45.17 2.02.17 4.54.17 7.69v4.53c0 3.16 0 5.67-.17 7.69-.17 2.07-.53 3.84-1.37 5.45a13.67 13.67 0 01-5.83 5.83c-1.61.84-3.38 1.2-5.45 1.37-2.02.17-4.54.17-7.69.17h-4.53c-3.16 0-5.67 0-7.69-.17-2.07-.17-3.84-.53-5.45-1.37a13.67 13.67 0 01-5.83-5.83c-.84-1.61-1.2-3.38-1.37-5.45-.17-2.02-.17-4.54-.17-7.69v-4.53c0-3.16 0-5.67.17-7.69.17-2.07.53-3.84 1.37-5.45 1.3-2.5 3.33-4.53 5.83-5.83 1.61-.84 3.38-1.2 5.45-1.37 2.02-.17 4.54-.17 7.69-.17zm-7.32 4.71c-1.79.15-2.88.43-3.73.87a9.129 9.129 0 00-3.89 3.89c-.44.85-.72 1.94-.87 3.73-.15 1.81-.15 4.14-.15 7.42v4.33c0 3.28 0 5.6.15 7.42.15 1.79.43 2.88.87 3.73a9.129 9.129 0 003.89 3.89c.85.44 1.94.72 3.73.87 1.81.15 4.14.15 7.42.15h4.33c3.28 0 5.6 0 7.42-.15 1.79-.15 2.88-.43 3.73-.87a9.129 9.129 0 003.89-3.89c.44-.85.72-1.94.87-3.73.15-1.81.15-4.14.15-7.42v-4.33c0-3.28 0-5.6-.15-7.42-.15-1.79-.43-2.88-.87-3.73a9.129 9.129 0 00-3.89-3.89c-.85-.44-1.94-.72-3.73-.87-1.81-.15-4.14-.15-7.42-.15h-4.33c-3.28 0-5.6 0-7.42.15zm9.19 6.13c1.26 0 2.28 1.02 2.28 2.28v11.31l8.03 3.05c1.18.45 1.77 1.76 1.32 2.94a2.273 2.273 0 01-2.94 1.32l-9.5-3.61a2.286 2.286 0 01-1.47-2.13V14.68c0-1.26 1.02-2.28 2.28-2.28z"/><path id="Path_84" data-name="Path 84" d="M896.32 40.68l-13.2-19.8V6.4h4.06c.75 0 1.35-.61 1.35-1.35s-.61-1.35-1.35-1.35h-24.35c-.75 0-1.35.61-1.35 1.35s.61 1.35 1.35 1.35h4.06v14.47l-13.2 19.8a4.058 4.058 0 003.38 6.31h35.88a4.058 4.058 0 003.38-6.31zM880.41 6.41v14.88c0 .27.08.53.23.75l2.21 3.31h-15.69l2.21-3.31c.15-.22.23-.48.23-.75V6.4h10.82zm13.72 37.16c-.23.44-.69.72-1.19.71h-35.88c-.5 0-.96-.27-1.19-.71-.24-.44-.22-.98.07-1.39l9.44-14.16c.05.01.1.03.16.03h18.94c.05 0 .11-.02.16-.03l9.44 14.16c.28.41.31.95.07 1.39zm-13.72-12.81c-2.99 0-5.41 2.42-5.41 5.41s2.42 5.41 5.41 5.41 5.41-2.42 5.41-5.41-2.42-5.41-5.41-5.41zm0 8.12c-1.49 0-2.71-1.21-2.71-2.71s1.21-2.71 2.71-2.71 2.71 1.21 2.71 2.71-1.21 2.71-2.71 2.71zm-8.12-4.06c0 .75-.61 1.35-1.35 1.35s-1.35-.61-1.35-1.35.61-1.35 1.35-1.35 1.35.61 1.35 1.35zm-5.41 4.06c0 1.49-1.21 2.71-2.71 2.71s-2.71-1.21-2.71-2.71 1.21-2.71 2.71-2.71 2.71 1.21 2.71 2.71z"/><circle class="cls-8" cx="575" cy="25.19" r="22"/><path class="cls-12" d="M775.49 31.22c3.64 0 6.6-2.95 6.6-6.6s-2.95-6.6-6.6-6.6-6.6 2.95-6.6 6.6 2.95 6.6 6.6 6.6z"/><path class="cls-12" d="M753.5 26.56v-3.87c0-2.29 1.87-4.18 4.18-4.18 3.98 0 5.61-2.81 3.61-6.27a4.187 4.187 0 011.54-5.7l3.8-2.18c1.74-1.03 3.98-.42 5.01 1.32l.24.42c1.98 3.45 5.23 3.45 7.23 0l.24-.42c1.03-1.74 3.28-2.35 5.01-1.32l3.8 2.18c2 1.14 2.68 3.72 1.54 5.7-2 3.45-.37 6.27 3.61 6.27 2.29 0 4.18 1.87 4.18 4.18v3.87c0 2.29-1.87 4.18-4.18 4.18-3.98 0-5.61 2.81-3.61 6.27 1.14 2 .46 4.55-1.54 5.7l-3.8 2.18c-1.74 1.03-3.98.42-5.01-1.32l-.24-.42c-1.98-3.45-5.23-3.45-7.23 0l-.24.42c-1.03 1.74-3.28 2.35-5.01 1.32l-3.8-2.18c-2-1.14-2.68-3.72-1.54-5.7 2-3.45.37-6.27-3.61-6.27-2.31 0-4.18-1.89-4.18-4.18zM155 25.7h39.82m-11.94-14.08l10.27 10.01c.53.51.95 1.12 1.23 1.8.29.68.43 1.4.43 2.14s-.15 1.46-.43 2.14c-.29.68-.71 1.29-1.23 1.8l-10.27 9.98M155 17.71h17.2m42.24 19.12h6.22M155 33.71h17.2"/><rect x="13.5" y="13" width="24" height="24" rx="1.89" ry="1.89"/><path d="M145.54 20.74l-.1-.23-.1-.22c-.83-1.7-2.3-3.02-4.47-4.98l-8.01-7.21c-1.87-1.68-3.13-2.82-4.65-3.46s-.47-.18-.47-.18c-1.55-.53-3.26-.53-5.79-.53h-.53c-3.48 0-6.23 0-8.41.3-2.45.33-4.15 1.03-5.47 2.26s-.35.35-.35.35c-1.24 1.32-1.94 3.02-2.26 5.45-.3 2.2-.3 4.98-.3 8.51v7.86c0 3.53 0 6.32.3 8.51.33 2.44 1.03 4.13 2.26 5.45s.35.36.35.36c1.32 1.23 3.01 1.93 5.45 2.26 2.17.29 4.91.3 8.37.3h8.14c3.46 0 6.2 0 8.37-.3 2.44-.33 4.13-1.03 5.45-2.26s.35-.35.35-.35c1.24-1.32 1.94-3.02 2.26-5.45.3-2.19.3-4.98.3-8.5v-1.27c0-2.92 0-4.9-.71-6.65zm-2.66 7.81c0 3.6 0 6.2-.26 8.17-.24 1.79-.68 2.9-1.48 3.69-.8.8-1.9 1.24-3.69 1.49-1.97.26-4.57.26-8.17.26h-7.65c-3.6 0-6.2 0-8.17-.26-1.79-.24-2.9-.68-3.7-1.48-.8-.8-1.24-1.91-1.48-3.7-.26-1.97-.26-4.57-.26-8.17V20.9c0-3.6 0-6.2.26-8.17.24-1.79.69-2.9 1.48-3.7.8-.8 1.91-1.24 3.71-1.48 1.98-.27 4.59-.27 8.21-.27 3.07 0 4.14.03 5.09.4.94.36 1.75 1.04 3.95 3.03l7.65 6.88h.01c2.62 2.37 3.5 3.22 3.98 4.29.47 1.07.51 2.31.51 5.83v.84z"/><path class="cls-11" d="M127.36 6.56v4.78c0 4.51 0 6.76 1.4 8.16 1.4 1.4 3.65 1.4 8.16 1.4h7.65"/><path class="cls-12" d="M118.82 37.86v-12.4m0 0l-6.01 5.63m6.01-5.63l6.01 5.63M240 28.5l-10.01 10.01m10.01 0L229.99 28.5"/><path class="cls-7" d="M1444.25 10.94h-39.3m13.87 11.56l1.16 11.56m10.4-11.56l-1.16 11.56"/><path class="cls-11" d="M1411.88 10.94h.25c1.9-.05 3.58-1.26 4.23-3.05l.08-.24.22-.67c.19-.57.29-.86.41-1.11a3.48 3.48 0 012.53-1.82c.27-.04.57-.04 1.18-.04h7.6c.61 0 .91 0 1.18.04 1.08.17 2.02.85 2.53 1.82.13.24.22.53.41 1.11l.22.67.08.24c.65 1.79 2.33 3 4.23 3.05h.25"/><path class="cls-7" d="M1439.33 32.67c-.41 6.14-.61 9.21-2.61 11.08-2 1.87-5.08 1.87-11.23 1.87h-1.79c-6.15 0-9.23 0-11.23-1.87s-2.2-4.94-2.61-11.08l-1.06-15.95m31.6 0l-.46 6.94"/><path class="cls-12" d="M234.28 17.32l1.55-3.82h-21.77l-1.56 3.82m12.44-3.04l-7.77 22.55"/><rect x="203" y="3" width="44" height="44" rx="3.6" ry="3.6" stroke-dasharray="0 0 6.06 6.06" stroke-width="2" stroke-linejoin="round" stroke-linecap="round" fill="none" stroke="#000"/><circle cx="816" cy="25" r="3"/><circle cx="826" cy="25" r="3"/><circle cx="836" cy="25" r="3"/><rect class="cls-12" x="904.5" y="27.5" width="17.5" height="17.5" rx="4.72" ry="4.72"/><rect class="cls-12" x="928.53" y="27.5" width="17.5" height="17.5" rx="4.72" ry="4.72"/><rect class="cls-12" x="904.5" y="4.5" width="17.5" height="17.5" rx="4.72" ry="4.72"/><rect class="cls-12" x="928.53" y="4.5" width="17.5" height="17.5" rx="8.75" ry="8.75"/><path d="M1073 3c0-1.1.9-2 2-2s2 .9 2 2v4c0 1.1-.9 2-2 2s-2-.9-2-2V3zm18.97 5.03c-.78-.78-2.05-.78-2.83 0l-2.83 2.83c-.78.78-.78 2.05 0 2.83.78.78 2.05.78 2.83 0l2.83-2.83c.78-.78.78-2.05 0-2.83zM1053 27c-1.1 0-2-.9-2-2s.9-2 2-2h4c1.1 0 2 .9 2 2s-.9 2-2 2h-4zm5.03-18.97c-.78.78-.78 2.05 0 2.83l2.83 2.83c.78.78 2.05.78 2.83 0 .78-.78.78-2.05 0-2.83l-2.83-2.83c-.78-.78-2.05-.78-2.83 0zM1073 43c0-1.1.9-2 2-2s2 .9 2 2v4c0 1.1-.9 2-2 2s-2-.9-2-2v-4zm-9.31-6.69c-.78-.78-2.05-.78-2.83 0l-2.83 2.83c-.78.78-.78 2.05 0 2.83.78.78 2.05.78 2.83 0l2.83-2.83c.78-.78.78-2.05 0-2.83zM1093 27c-1.1 0-2-.9-2-2s.9-2 2-2h4c1.1 0 2 .9 2 2s-.9 2-2 2h-4zm-6.69 9.31c-.78.78-.78 2.05 0 2.83l2.83 2.83c.78.78 2.05.78 2.83 0 .78-.78.78-2.05 0-2.83l-2.83-2.83c-.78-.78-2.05-.78-2.83 0z" fill="#0f0f0f"/><path d="M1114.05 12.41c-.22.57-.68 1.02-1.25 1.25l-4.99 1.98c-1.87.74-1.87 3.39 0 4.13l4.99 1.98c.57.23 1.02.68 1.25 1.25l1.97 5.01c.74 1.87 3.38 1.87 4.11 0l1.97-5.01c.22-.57.68-1.02 1.25-1.25l4.99-1.98c1.87-.74 1.87-3.39 0-4.13l-4.99-1.98c-.57-.23-1.02-.68-1.25-1.25l-1.97-5.01c-.74-1.87-3.38-1.87-4.11 0l-1.97 5.01zm18.94 20.04c-.22.57-.68 1.02-1.25 1.25l-1.82.72c-1.87.74-1.87 3.39 0 4.13l1.82.72c.57.23 1.02.68 1.25 1.25l.72 1.83c.74 1.87 3.38 1.87 4.11 0l.72-1.83c.22-.57.68-1.02 1.25-1.25l1.82-.72c1.87-.74 1.87-3.39 0-4.13l-1.82-.72c-.57-.23-1.02-.68-1.25-1.25l-.72-1.83c-.74-1.87-3.38-1.87-4.11 0l-.72 1.83z"/><g id="Page-1"><g id="Icon-Set"><path id="new" class="cls-18" d="M1168.62 34.55l-7.54 4.57c-.69.32-1.3-.34-.98-.99l4.57-7.55 3.96 3.97zm13.27-22.18l4.97 4.9-15.78 15.79-4.93-4.93 15.74-15.75zm4.97-4.97c.54-.55 1.43-.55 1.97 0l2.96 2.96a1.4 1.4 0 010 1.97l-2.96 2.96-4.86-5.01 2.89-2.89zm-23.4 20.19l-6.04 12.22c-.51 1.38.59 2.61 1.97 1.97l12.21-6.04c.53-.1 1.04-.31 1.44-.71l21.7-21.71a2.794 2.794 0 000-3.95l-4.93-4.93a2.782 2.782 0 00-3.94 0l-21.7 21.71c-.41.41-.61.92-.71 1.45zm30.73-8.52v22.46c0 1.54-1.52 2.82-3.06 2.82h-33.47c-1.54 0-2.79-1.25-2.79-2.79V8.08c0-1.54 1.28-3.04 2.83-3.04h22.46V2.23h-22.46c-3.08 0-5.62 2.76-5.62 5.85v33.49c0 3.08 2.5 5.58 5.58 5.58h33.47c3.08 0 5.87-2.53 5.87-5.62V19.07h-2.81z"/></g></g><path class="cls-14" d="M677.22 44.98h-16.99c-2.63 0-4.77-2.14-4.77-4.77V11.59c0-2.63 2.14-4.77 4.77-4.77h16.99M696 25.9h-28.62m28.62 0l-9.54 9.54M696 25.9l-9.54-9.54"/><path id="Path" class="cls-17" d="M1224.85 27.32V17.4"/><path id="Path-2" data-name="Path" class="cls-17" d="M1224.85 36v.32"/><path id="Path-3" data-name="Path" class="cls-17" d="M1220.56 7.48c1.91-3.31 6.68-3.31 8.59 0l17.18 29.76c1.91 3.31-.48 7.44-4.3 7.44h-34.36c-3.82 0-6.2-4.13-4.3-7.44l17.18-29.76z"/><path d="M1287.36 4h-17.33c-3.57 0-6.47 2.9-6.47 6.47v.9h-.9c-3.57 0-6.47 2.9-6.47 6.47v22.28c0 3.57 2.9 6.47 6.47 6.47h17.33c3.57 0 6.47-2.9 6.47-6.47v-.9h.9c3.57 0 6.47-2.9 6.47-6.47V10.47c0-3.57-2.9-6.47-6.47-6.47zm3.43 28.75c0 1.89-1.54 3.43-3.43 3.43h-.9V17.84c0-3.57-2.9-6.47-6.47-6.47h-13.39v-.9c0-1.89 1.54-3.43 3.43-3.43h17.33c1.89 0 3.43 1.54 3.43 3.43v22.28zm-10.8 10.8h-17.33c-1.89 0-3.43-1.54-3.43-3.43V17.84c0-1.89 1.54-3.43 3.43-3.43h17.33c1.89 0 3.43 1.54 3.43 3.43v22.28c0 1.89-1.54 3.43-3.43 3.43zM1324.83 2c-12.79 0-23.17 10.37-23.17 23.17s10.37 23.17 23.17 23.17S1348 37.97 1348 25.17 1337.63 2 1324.83 2zm5.5 35.52c-1.19.47-2.14.83-2.85 1.07-.71.25-1.53.37-2.47.37-1.44 0-2.56-.35-3.36-1.05-.8-.7-1.2-1.6-1.2-2.68 0-.42.03-.85.09-1.29.06-.44.16-.93.29-1.49l1.49-5.26c.13-.5.24-.98.33-1.43.09-.45.14-.86.14-1.23 0-.67-.14-1.14-.42-1.41-.28-.26-.81-.4-1.59-.4-.38 0-.78.06-1.18.18-.4.12-.75.24-1.04.34l.4-1.62c.97-.4 1.91-.74 2.8-1.02.89-.28 1.73-.42 2.53-.42 1.43 0 2.53.35 3.31 1.04.78.69 1.16 1.59 1.16 2.7 0 .23-.03.63-.08 1.21s-.15 1.11-.3 1.59l-1.48 5.24c-.12.42-.23.9-.33 1.44-.1.54-.14.95-.14 1.23 0 .7.16 1.17.47 1.42.31.25.85.38 1.62.38.36 0 .77-.06 1.23-.19.45-.13.79-.24.99-.33l-.4 1.62zm-.26-21.3c-.69.64-1.52.97-2.49.97s-1.81-.32-2.51-.97c-.7-.64-1.05-1.42-1.05-2.33s.35-1.69 1.05-2.34c.7-.65 1.53-.97 2.51-.97s1.8.32 2.49.97c.69.65 1.04 1.43 1.04 2.34s-.34 1.69-1.04 2.33z"/><circle class="cls-11" cx="1375.12" cy="24.95" r="21.55"/><path class="cls-12" d="M1365.43 24.75h19.39"/><g id="Group_356" data-name="Group 356"><path id="Path_205" data-name="Path 205" d="M748.81 41.88l-4.91-14.82c1.78-1.66 3.02-3.8 3.59-6.16.02-.09.05-.18.07-.27.05-.24.09-.49.13-.73.03-.17.06-.35.08-.52.02-.19.03-.39.05-.58.01-.15.03-.3.04-.46v-.4c0-.14-.02-.26-.02-.4 0-.23-.01-.45-.03-.67-.02-.22-.05-.43-.08-.64-.02-.18-.05-.36-.08-.54-.05-.29-.12-.57-.19-.85a12.401 12.401 0 00-11.56-9.36h-.01s-.08-.01-.12-.01h-22.79c-.1 0-.19.02-.28.03-5.3.31-9.81 3.95-11.22 9.06-.03.09-.05.19-.07.28-.07.28-.14.56-.19.84-.03.18-.05.36-.08.54-.03.21-.06.42-.07.63-.02.23-.02.46-.03.68 0 .13-.02.26-.02.39v.4c0 .16.03.31.04.47.01.19.02.38.05.57.02.18.05.36.08.53.04.24.08.49.13.73.02.09.05.18.07.28.32 1.36.87 2.66 1.63 3.83a12.42 12.42 0 00-1.53 3.43c-.03.09-.05.19-.07.28-.07.28-.14.56-.19.84-.03.18-.05.36-.08.54-.03.21-.06.42-.07.63-.02.23-.02.46-.03.69 0 .13-.02.26-.02.39v.4c0 .16.03.31.04.47.01.19.02.38.05.57.02.18.05.36.08.53.04.24.08.49.13.73.02.09.05.18.07.28 1.3 5.41 6.04 9.29 11.6 9.49h12.21c.42 0 .76-.34.76-.76V30.39h10.05c1.87-.09 3.69-.59 5.34-1.48l4.62 13.93c.2.62.78 1.04 1.44 1.04a1.505 1.505 0 001.42-1.99m-44.78-10.34c0-1.52.36-3.01 1.06-4.36 2.17 1.97 4.96 3.11 7.88 3.21h9.94v10.58h-9.75c-5.09-.17-9.14-4.35-9.14-9.45m2.9-6.8a9.347 9.347 0 016.23-2.64h9.75v5.29h-9.75a9.423 9.423 0 01-6.23-2.64m-.24-13.38a9.368 9.368 0 016.47-2.86h9.75v10.58h-9.94c-.1 0-.19.02-.28.03-2.82.16-5.51 1.29-7.6 3.19a9.453 9.453 0 011.6-10.93m19.25 8.47V8.51h9.75c5.21.17 9.3 4.54 9.13 9.75a9.398 9.398 0 01-2.02 5.54c-.25-.68-.59-1.33-1.01-1.92a6.21 6.21 0 00-5.21-2.83h-7.55c-.83 0-1.51.68-1.51 1.51s.68 1.51 1.51 1.51h7.55c1.1 0 2.12.56 2.71 1.49.37.52.64 1.09.83 1.69 0 .02.02.06.02.08l.21.65c-1.4.87-3.01 1.36-4.66 1.41h-9.75v-7.55z"/></g><path d="M1455.5 10.5h40m-39.5 15h28.5m-28.5 15h17.5" stroke-width="3" stroke-miterlimit="10" stroke-linecap="round" fill="none" stroke="#000"/><rect class="cls-8" x="1503.69" y="4.5" width="42" height="42" rx="5.12" ry="5.12"/><path class="cls-14" d="M1527.28 23.85l9.58-9.59m-9.58 9.59V11.63m0 12.22h12.22m-17.48 4.26l-9.59 9.58m9.59-9.58v12.22m0-12.22h-12.22"/><rect x="1554.69" y="4.5" width="42" height="42" rx="5.12" ry="5.12" stroke-dasharray="0 0 6.12 6.12" stroke-linejoin="round" stroke-width="3" stroke-linecap="round" fill="none" stroke="#000"/><path class="cls-14" d="M1562.78 38.85l9.58-9.59m-9.58 9.59V26.63m0 12.22H1575m14.02-26.24l-9.59 9.58m9.59-9.58v12.22m0-12.22h-12.22"/><path d="M1892.07 36.57c.58.58 1.51.58 2.09 0 6.17-6.18 6.17-16.24 0-22.43a1.47 1.47 0 00-2.08 0c-.58.58-.58 1.51 0 2.09 5.03 5.03 5.03 13.22 0 18.25-.58.58-.58 1.51 0 2.09zm-6.2-5.27c.48.48 1.25.48 1.73 0 3.27-3.28 3.27-8.61 0-11.88-.24-.24-.55-.36-.86-.36s-.63.12-.86.36a1.22 1.22 0 000 1.73 5.963 5.963 0 010 8.42 1.22 1.22 0 000 1.73z" stroke-width="1.5" stroke-miterlimit="10" stroke="#000"/><path d="M1739.05 16.98c.15.22.07.52-.07.75L1716.5 47.7c-.22.3-.6.37-.97.22-.3-.15-.45-.52-.37-.9l7.34-22.55h-8.84c-.22 0-.52-.15-.67-.37s-.15-.52 0-.75l9.97-19.86c.07-.3.37-.45.67-.45h13.64c.3 0 .52.15.67.37s.15.52 0 .75l-7.27 12.36h7.72c.3 0 .52.15.67.45zm57.82-.72c.15.23.08.54-.08.77l-23 30.67c-.23.31-.61.38-1 .23-.31-.15-.46-.54-.38-.92l7.51-23.08h-9.05c-.23 0-.54-.15-.69-.38s-.15-.54 0-.77l10.2-20.32c.08-.31.38-.46.69-.46h13.95c.31 0 .54.15.69.38s.15.54 0 .77l-7.44 12.65h7.9c.31 0 .54.15.69.46z"/><path d="M1757.5 35.81h12.22m-9.22 6.32h8.22M1754.5 29.5h17" stroke-width="2.8" stroke-linejoin="round" stroke-linecap="round" fill="none" stroke="#000"/><g id="Group_553" data-name="Group 553"><path id="Path_88" data-name="Path 88" class="cls-18" d="M59.36 22.78c0-.97-.79-1.76-1.76-1.76s-1.76.79-1.76 1.76c0 9.9 7.54 18.17 17.4 19.08v4.92c0 .97.79 1.76 1.76 1.76s1.76-.79 1.76-1.76v-4.92c9.86-.91 17.4-9.18 17.4-19.07 0-.97-.79-1.76-1.76-1.76s-1.76.79-1.76 1.76c-.1 8.63-7.19 15.55-15.82 15.45-8.49-.1-15.34-6.96-15.44-15.44h-.01z"/><path id="Path_89" data-name="Path 89" class="cls-18" d="M74.7 5.23c-3.77 0-6.83 3.06-6.83 6.83v10.69c0 3.77 3.06 6.83 6.83 6.83h.6c3.77 0 6.83-3.06 6.83-6.83v-.29h-4.95c-.97 0-1.76-.79-1.76-1.76s.79-1.76 1.76-1.76h4.95v-3.93h-2.71c-.97 0-1.76-.79-1.76-1.76s.79-1.76 1.76-1.76h2.68c-.31-3.53-3.27-6.25-6.81-6.25h-.58zm-10.36 6.83c0-5.72 4.64-10.36 10.36-10.36h.59c5.72 0 10.36 4.64 10.36 10.36v10.69c0 5.72-4.63 10.36-10.35 10.36h-.6c-5.72 0-10.36-4.64-10.36-10.36V12.06z"/></g><g id="Group_553-2" data-name="Group 553"><path id="Path_88-2" data-name="Path 88" class="cls-18" d="M1659.36 22.78c0-.97-.79-1.76-1.76-1.76s-1.76.79-1.76 1.76c0 9.9 7.54 18.17 17.4 19.08v4.92c0 .97.79 1.76 1.76 1.76s1.76-.79 1.76-1.76v-4.92c9.86-.91 17.4-9.18 17.4-19.07 0-.97-.79-1.76-1.76-1.76s-1.76.79-1.76 1.76c-.1 8.63-7.19 15.55-15.82 15.45-8.49-.1-15.34-6.96-15.44-15.44h-.01z"/></g><path class="cls-18" d="M1675 2c-6.08 0-11 4.92-11 11v9c0 6.08 4.92 11 11 11s11-4.92 11-11v-9c0-6.08-4.92-11-11-11zm6.84 14.38l-8.37 13.3c-.18.29-.55.4-.86.27a.697.697 0 01-.4-.81l2.08-8.24h-5.58c-.25 0-.49-.14-.61-.36a.72.72 0 01.02-.71l8.37-13.3c.18-.29.55-.4.86-.27.32.14.48.48.4.81l-2.08 8.24h5.58c.25 0 .49.14.61.36.12.22.11.49-.02.71zM1866.5 5c-8.01 0-14.5 6.49-14.5 14.5v11.86c0 8.01 6.49 14.5 14.5 14.5s14.5-6.49 14.5-14.5V19.5c0-8.01-6.49-14.5-14.5-14.5zm9.01 18.96l-11.03 17.53a.92.92 0 01-1.14.35.916.916 0 01-.53-1.07l2.74-10.87h-7.36c-.33 0-.64-.18-.81-.48a.912.912 0 01.03-.93l11.03-17.53a.92.92 0 011.14-.35c.42.18.64.63.53 1.07l-2.74 10.87h7.36c.33 0 .64.18.81.48.16.29.15.65-.03.93z"/><g id="layer1"><path id="path24806" class="cls-18" d="M1830.21 2.65a1.784 1.784 0 00-2.99.82l-2.4 9.6-6.75 6.75-13.21 1.2c-.98.09-1.7.96-1.61 1.94.04.42.22.8.51 1.1l10.08 10.08-10.08 10.08c-.7.7-.7 1.82 0 2.52s1.82.7 2.52 0l10.08-10.08 10.08 10.08c.7.7 1.82.69 2.52 0 .29-.29.48-.68.51-1.1l1.2-13.21 6.75-6.75 9.6-2.4c.95-.24 1.53-1.21 1.29-2.16-.08-.31-.24-.6-.47-.82L1830.2 2.66z"/></g></svg>