<svg xmlns="http://www.w3.org/2000/svg" width="24" height="24"><path d="M24 0v24H0V0zM12.594 23.258h-.012l-.071.035h-.034l-.071-.035a.021.021 0 00-.024.005v.011l-.017.427.005.02.011.012.1.074h.027l.1-.074.013-.016V23.7l-.017-.427a.021.021 0 00-.016-.018zm.265-.112h-.014l-.185.092-.01.01v.011l.018.429v.013l.009.007.2.093a.025.025 0 00.028-.008v-.014l-.034-.615a.025.025 0 00-.019-.021zm-.715 0a.023.023 0 00-.027.005l-.006.014-.034.615a.023.023 0 00.017.023h.016l.2-.093.009-.008v-.012l.018-.429v-.013l-.009-.009z" fill="none"/><path d="M10.077 2.614a1.01 1.01 0 011.787-.114l.059.114 1.042 2.344A11 11 0 0017.3 9.89l.322.189 1.851 1.041a1.01 1.01 0 01.108 1.691l-.108.07-1.851 1.041a11 11 0 00-4.5 4.781l-.157.339-1.042 2.344a1.01 1.01 0 01-1.787.114l-.059-.114-1.042-2.345A11 11 0 004.7 14.11l-.322-.189-1.853-1.041a1.01 1.01 0 01-.108-1.691l.108-.07 1.851-1.041A11 11 0 008.878 5.3l.157-.339zm9.144-.493a5.732 5.732 0 002.414 2.673.236.236 0 010 .411 5.732 5.732 0 00-2.414 2.673.241.241 0 01-.441 0 5.732 5.732 0 00-2.414-2.673.236.236 0 010-.411 5.732 5.732 0 002.414-2.673.241.241 0 01.441 0z"/></svg>